<?xml version="1.0" encoding="UTF-8" standalone="no"?>
<!DOCTYPE svg PUBLIC "-//W3C//DTD SVG 1.1//EN"
 "http://www.w3.org/Graphics/SVG/1.1/DTD/svg11.dtd">
<!-- Generated by graphviz version 5.0.0 (20220707.1540)
 -->
<!-- Title: dependencies Pages: 1 -->
<svg width="1004pt" height="247pt"
 viewBox="0.00 0.00 1004.00 246.80" xmlns="http://www.w3.org/2000/svg" xmlns:xlink="http://www.w3.org/1999/xlink">
<g id="graph0" class="graph" transform="scale(1 1) rotate(0) translate(4 242.8)">
<title>dependencies</title>
<polygon fill="white" stroke="transparent" points="-4,4 -4,-242.8 1000,-242.8 1000,4 -4,4"/>
<text text-anchor="middle" x="498" y="-8.2" font-family="sans-serif" font-size="14.00">dependencies</text>
<g id="clust1" class="cluster">
<title>cluster_AppModule</title>
<polygon fill="none" stroke="black" stroke-dasharray="1,5" points="8,-32.8 8,-230.8 988,-230.8 988,-32.8 8,-32.8"/>
</g>
<g id="clust9" class="cluster">
<title>cluster_AppModule_imports</title>
<polygon fill="none" stroke="black" points="836,-40.8 836,-92.8 980,-92.8 980,-40.8 836,-40.8"/>
</g>
<g id="clust11" class="cluster">
<title>cluster_AppModule_bootstrap</title>
<polygon fill="none" stroke="black" points="439,-170.8 439,-222.8 563,-222.8 563,-170.8 439,-170.8"/>
</g>
<g id="clust2" class="cluster">
<title>cluster_AppModule_declarations</title>
<polygon fill="none" stroke="black" points="16,-40.8 16,-92.8 828,-92.8 828,-40.8 16,-40.8"/>
</g>
<!-- AppComponent -->
<g id="node1" class="node">
<title>AppComponent</title>
<polygon fill="#ffffb3" stroke="black" points="819.94,-84.8 714.06,-84.8 714.06,-48.8 819.94,-48.8 819.94,-84.8"/>
<text text-anchor="middle" x="767" y="-62.6" font-family="Times,serif" font-size="14.00">AppComponent</text>
</g>
<!-- AppModule -->
<g id="node7" class="node">
<title>AppModule</title>
<polygon fill="#8dd3c7" stroke="black" points="542.66,-149.8 539.66,-153.8 518.66,-153.8 515.66,-149.8 459.34,-149.8 459.34,-113.8 542.66,-113.8 542.66,-149.8"/>
<text text-anchor="middle" x="501" y="-127.6" font-family="Times,serif" font-size="14.00">AppModule</text>
</g>
<!-- AppComponent&#45;&gt;AppModule -->
<g id="edge1" class="edge">
<title>AppComponent&#45;&gt;AppModule</title>
<path fill="none" stroke="black" d="M767,-84.91C767,-104.14 767,-131.8 767,-131.8 767,-131.8 552.86,-131.8 552.86,-131.8"/>
<polygon fill="black" stroke="black" points="552.86,-128.3 542.86,-131.8 552.86,-135.3 552.86,-128.3"/>
</g>
<!-- LoginComponent -->
<g id="node2" class="node">
<title>LoginComponent</title>
<polygon fill="#ffffb3" stroke="black" points="696.27,-84.8 581.73,-84.8 581.73,-48.8 696.27,-48.8 696.27,-84.8"/>
<text text-anchor="middle" x="639" y="-62.6" font-family="Times,serif" font-size="14.00">LoginComponent</text>
</g>
<!-- LoginComponent&#45;&gt;AppModule -->
<g id="edge2" class="edge">
<title>LoginComponent&#45;&gt;AppModule</title>
<path fill="none" stroke="black" d="M639,-84.83C639,-101.2 639,-122.8 639,-122.8 639,-122.8 552.78,-122.8 552.78,-122.8"/>
<polygon fill="black" stroke="black" points="552.78,-119.3 542.78,-122.8 552.78,-126.3 552.78,-119.3"/>
</g>
<!-- NavBarComponent -->
<g id="node3" class="node">
<title>NavBarComponent</title>
<polygon fill="#ffffb3" stroke="black" points="563.37,-84.8 438.63,-84.8 438.63,-48.8 563.37,-48.8 563.37,-84.8"/>
<text text-anchor="middle" x="501" y="-62.6" font-family="Times,serif" font-size="14.00">NavBarComponent</text>
</g>
<!-- NavBarComponent&#45;&gt;AppModule -->
<g id="edge3" class="edge">
<title>NavBarComponent&#45;&gt;AppModule</title>
<path fill="none" stroke="black" d="M501,-84.91C501,-84.91 501,-103.79 501,-103.79"/>
<polygon fill="black" stroke="black" points="497.5,-103.79 501,-113.79 504.5,-103.79 497.5,-103.79"/>
</g>
<!-- ToolsComponent -->
<g id="node4" class="node">
<title>ToolsComponent</title>
<polygon fill="#ffffb3" stroke="black" points="420.72,-84.8 307.28,-84.8 307.28,-48.8 420.72,-48.8 420.72,-84.8"/>
<text text-anchor="middle" x="364" y="-62.6" font-family="Times,serif" font-size="14.00">ToolsComponent</text>
</g>
<!-- ToolsComponent&#45;&gt;AppModule -->
<g id="edge4" class="edge">
<title>ToolsComponent&#45;&gt;AppModule</title>
<path fill="none" stroke="black" d="M364,-84.83C364,-101.2 364,-122.8 364,-122.8 364,-122.8 449.15,-122.8 449.15,-122.8"/>
<polygon fill="black" stroke="black" points="449.15,-126.3 459.15,-122.8 449.15,-119.3 449.15,-126.3"/>
</g>
<!-- UsersComponent -->
<g id="node5" class="node">
<title>UsersComponent</title>
<polygon fill="#ffffb3" stroke="black" points="289.71,-84.8 176.29,-84.8 176.29,-48.8 289.71,-48.8 289.71,-84.8"/>
<text text-anchor="middle" x="233" y="-62.6" font-family="Times,serif" font-size="14.00">UsersComponent</text>
</g>
<!-- UsersComponent&#45;&gt;AppModule -->
<g id="edge5" class="edge">
<title>UsersComponent&#45;&gt;AppModule</title>
<path fill="none" stroke="black" d="M233,-84.91C233,-104.14 233,-131.8 233,-131.8 233,-131.8 449.12,-131.8 449.12,-131.8"/>
<polygon fill="black" stroke="black" points="449.13,-135.3 459.12,-131.8 449.12,-128.3 449.13,-135.3"/>
</g>
<!-- WelcomeComponent -->
<g id="node6" class="node">
<title>WelcomeComponent</title>
<polygon fill="#ffffb3" stroke="black" points="158.47,-84.8 23.53,-84.8 23.53,-48.8 158.47,-48.8 158.47,-84.8"/>
<text text-anchor="middle" x="91" y="-62.6" font-family="Times,serif" font-size="14.00">WelcomeComponent</text>
</g>
<!-- WelcomeComponent&#45;&gt;AppModule -->
<g id="edge6" class="edge">
<title>WelcomeComponent&#45;&gt;AppModule</title>
<path fill="none" stroke="black" d="M91,-85.09C91,-107.01 91,-140.8 91,-140.8 91,-140.8 449.05,-140.8 449.05,-140.8"/>
<polygon fill="black" stroke="black" points="449.05,-144.3 459.05,-140.8 449.05,-137.3 449.05,-144.3"/>
</g>
<!-- AppComponent  -->
<g id="node9" class="node">
<title>AppComponent </title>
<polygon fill="#80b1d3" stroke="black" points="555.44,-214.8 446.56,-214.8 446.56,-178.8 555.44,-178.8 555.44,-214.8"/>
<text text-anchor="middle" x="501" y="-192.6" font-family="Times,serif" font-size="14.00">AppComponent </text>
</g>
<!-- AppModule&#45;&gt;AppComponent  -->
<g id="edge8" class="edge">
<title>AppModule&#45;&gt;AppComponent </title>
<path fill="none" stroke="black" stroke-dasharray="1,5" d="M501,-149.91C501,-149.91 501,-168.79 501,-168.79"/>
<polygon fill="black" stroke="black" points="497.5,-168.79 501,-178.79 504.5,-168.79 497.5,-168.79"/>
</g>
<!-- AppRoutingModule -->
<g id="node8" class="node">
<title>AppRoutingModule</title>
<polygon fill="#8dd3c7" stroke="black" points="972.28,-84.8 969.28,-88.8 948.28,-88.8 945.28,-84.8 843.72,-84.8 843.72,-48.8 972.28,-48.8 972.28,-84.8"/>
<text text-anchor="middle" x="908" y="-62.6" font-family="Times,serif" font-size="14.00">AppRoutingModule</text>
</g>
<!-- AppRoutingModule&#45;&gt;AppModule -->
<g id="edge7" class="edge">
<title>AppRoutingModule&#45;&gt;AppModule</title>
<path fill="none" stroke="black" d="M908,-85.09C908,-107.01 908,-140.8 908,-140.8 908,-140.8 553.02,-140.8 553.02,-140.8"/>
<polygon fill="black" stroke="black" points="553.02,-137.3 543.02,-140.8 553.02,-144.3 553.02,-137.3"/>
</g>
</g>
</svg>
