<?xml version="1.0" encoding="UTF-8" standalone="no"?>
<!DOCTYPE svg PUBLIC "-//W3C//DTD SVG 1.1//EN"
 "http://www.w3.org/Graphics/SVG/1.1/DTD/svg11.dtd">
<!-- Generated by graphviz version 5.0.0 (20220707.1540)
 -->
<!-- Title: dependencies Pages: 1 -->
<svg width="1140pt" height="247pt"
 viewBox="0.00 0.00 1140.00 246.80" xmlns="http://www.w3.org/2000/svg" xmlns:xlink="http://www.w3.org/1999/xlink">
<g id="graph0" class="graph" transform="scale(1 1) rotate(0) translate(4 242.8)">
<title>dependencies</title>
<polygon fill="white" stroke="transparent" points="-4,4 -4,-242.8 1136,-242.8 1136,4 -4,4"/>
<text text-anchor="middle" x="566" y="-8.2" font-family="sans-serif" font-size="14.00">dependencies</text>
<g id="clust1" class="cluster">
<title>cluster_AppModule</title>
<polygon fill="none" stroke="black" stroke-dasharray="1,5" points="8,-32.8 8,-230.8 1124,-230.8 1124,-32.8 8,-32.8"/>
</g>
<g id="clust10" class="cluster">
<title>cluster_AppModule_imports</title>
<polygon fill="none" stroke="black" points="972,-40.8 972,-92.8 1116,-92.8 1116,-40.8 972,-40.8"/>
</g>
<g id="clust12" class="cluster">
<title>cluster_AppModule_bootstrap</title>
<polygon fill="none" stroke="black" points="508,-170.8 508,-222.8 632,-222.8 632,-170.8 508,-170.8"/>
</g>
<g id="clust2" class="cluster">
<title>cluster_AppModule_declarations</title>
<polygon fill="none" stroke="black" points="16,-40.8 16,-92.8 964,-92.8 964,-40.8 16,-40.8"/>
</g>
<!-- AppComponent -->
<g id="node1" class="node">
<title>AppComponent</title>
<polygon fill="#ffffb3" stroke="black" points="955.94,-84.8 850.06,-84.8 850.06,-48.8 955.94,-48.8 955.94,-84.8"/>
<text text-anchor="middle" x="903" y="-62.6" font-family="Times,serif" font-size="14.00">AppComponent</text>
</g>
<!-- AppModule -->
<g id="node8" class="node">
<title>AppModule</title>
<polygon fill="#8dd3c7" stroke="black" points="611.66,-149.8 608.66,-153.8 587.66,-153.8 584.66,-149.8 528.34,-149.8 528.34,-113.8 611.66,-113.8 611.66,-149.8"/>
<text text-anchor="middle" x="570" y="-127.6" font-family="Times,serif" font-size="14.00">AppModule</text>
</g>
<!-- AppComponent&#45;&gt;AppModule -->
<g id="edge1" class="edge">
<title>AppComponent&#45;&gt;AppModule</title>
<path fill="none" stroke="black" d="M903,-84.91C903,-104.14 903,-131.8 903,-131.8 903,-131.8 621.84,-131.8 621.84,-131.8"/>
<polygon fill="black" stroke="black" points="621.84,-128.3 611.84,-131.8 621.84,-135.3 621.84,-128.3"/>
</g>
<!-- FooterComponent -->
<g id="node2" class="node">
<title>FooterComponent</title>
<polygon fill="#ffffb3" stroke="black" points="831.88,-84.8 714.12,-84.8 714.12,-48.8 831.88,-48.8 831.88,-84.8"/>
<text text-anchor="middle" x="773" y="-62.6" font-family="Times,serif" font-size="14.00">FooterComponent</text>
</g>
<!-- FooterComponent&#45;&gt;AppModule -->
<g id="edge2" class="edge">
<title>FooterComponent&#45;&gt;AppModule</title>
<path fill="none" stroke="black" d="M773,-84.83C773,-101.2 773,-122.8 773,-122.8 773,-122.8 622.06,-122.8 622.06,-122.8"/>
<polygon fill="black" stroke="black" points="622.06,-119.3 612.06,-122.8 622.06,-126.3 622.06,-119.3"/>
</g>
<!-- LoginComponent -->
<g id="node3" class="node">
<title>LoginComponent</title>
<polygon fill="#ffffb3" stroke="black" points="696.27,-84.8 581.73,-84.8 581.73,-48.8 696.27,-48.8 696.27,-84.8"/>
<text text-anchor="middle" x="639" y="-62.6" font-family="Times,serif" font-size="14.00">LoginComponent</text>
</g>
<!-- LoginComponent&#45;&gt;AppModule -->
<g id="edge3" class="edge">
<title>LoginComponent&#45;&gt;AppModule</title>
<path fill="none" stroke="black" d="M596.72,-84.91C596.72,-84.91 596.72,-103.79 596.72,-103.79"/>
<polygon fill="black" stroke="black" points="593.22,-103.79 596.72,-113.79 600.22,-103.79 593.22,-103.79"/>
</g>
<!-- NavBarComponent -->
<g id="node4" class="node">
<title>NavBarComponent</title>
<polygon fill="#ffffb3" stroke="black" points="563.37,-84.8 438.63,-84.8 438.63,-48.8 563.37,-48.8 563.37,-84.8"/>
<text text-anchor="middle" x="501" y="-62.6" font-family="Times,serif" font-size="14.00">NavBarComponent</text>
</g>
<!-- NavBarComponent&#45;&gt;AppModule -->
<g id="edge4" class="edge">
<title>NavBarComponent&#45;&gt;AppModule</title>
<path fill="none" stroke="black" d="M545.8,-84.91C545.8,-84.91 545.8,-103.79 545.8,-103.79"/>
<polygon fill="black" stroke="black" points="542.3,-103.79 545.8,-113.79 549.3,-103.79 542.3,-103.79"/>
</g>
<!-- ToolsComponent -->
<g id="node5" class="node">
<title>ToolsComponent</title>
<polygon fill="#ffffb3" stroke="black" points="420.72,-84.8 307.28,-84.8 307.28,-48.8 420.72,-48.8 420.72,-84.8"/>
<text text-anchor="middle" x="364" y="-62.6" font-family="Times,serif" font-size="14.00">ToolsComponent</text>
</g>
<!-- ToolsComponent&#45;&gt;AppModule -->
<g id="edge5" class="edge">
<title>ToolsComponent&#45;&gt;AppModule</title>
<path fill="none" stroke="black" d="M364,-84.83C364,-101.2 364,-122.8 364,-122.8 364,-122.8 518.31,-122.8 518.31,-122.8"/>
<polygon fill="black" stroke="black" points="518.31,-126.3 528.31,-122.8 518.31,-119.3 518.31,-126.3"/>
</g>
<!-- UsersComponent -->
<g id="node6" class="node">
<title>UsersComponent</title>
<polygon fill="#ffffb3" stroke="black" points="289.71,-84.8 176.29,-84.8 176.29,-48.8 289.71,-48.8 289.71,-84.8"/>
<text text-anchor="middle" x="233" y="-62.6" font-family="Times,serif" font-size="14.00">UsersComponent</text>
</g>
<!-- UsersComponent&#45;&gt;AppModule -->
<g id="edge6" class="edge">
<title>UsersComponent&#45;&gt;AppModule</title>
<path fill="none" stroke="black" d="M233,-84.91C233,-104.14 233,-131.8 233,-131.8 233,-131.8 518,-131.8 518,-131.8"/>
<polygon fill="black" stroke="black" points="518,-135.3 528,-131.8 518,-128.3 518,-135.3"/>
</g>
<!-- WelcomeComponent -->
<g id="node7" class="node">
<title>WelcomeComponent</title>
<polygon fill="#ffffb3" stroke="black" points="158.47,-84.8 23.53,-84.8 23.53,-48.8 158.47,-48.8 158.47,-84.8"/>
<text text-anchor="middle" x="91" y="-62.6" font-family="Times,serif" font-size="14.00">WelcomeComponent</text>
</g>
<!-- WelcomeComponent&#45;&gt;AppModule -->
<g id="edge7" class="edge">
<title>WelcomeComponent&#45;&gt;AppModule</title>
<path fill="none" stroke="black" d="M91,-85.09C91,-107.01 91,-140.8 91,-140.8 91,-140.8 518.33,-140.8 518.33,-140.8"/>
<polygon fill="black" stroke="black" points="518.33,-144.3 528.33,-140.8 518.33,-137.3 518.33,-144.3"/>
</g>
<!-- AppComponent  -->
<g id="node10" class="node">
<title>AppComponent </title>
<polygon fill="#80b1d3" stroke="black" points="624.44,-214.8 515.56,-214.8 515.56,-178.8 624.44,-178.8 624.44,-214.8"/>
<text text-anchor="middle" x="570" y="-192.6" font-family="Times,serif" font-size="14.00">AppComponent </text>
</g>
<!-- AppModule&#45;&gt;AppComponent  -->
<g id="edge9" class="edge">
<title>AppModule&#45;&gt;AppComponent </title>
<path fill="none" stroke="black" stroke-dasharray="1,5" d="M570,-149.91C570,-149.91 570,-168.79 570,-168.79"/>
<polygon fill="black" stroke="black" points="566.5,-168.79 570,-178.79 573.5,-168.79 566.5,-168.79"/>
</g>
<!-- AppRoutingModule -->
<g id="node9" class="node">
<title>AppRoutingModule</title>
<polygon fill="#8dd3c7" stroke="black" points="1108.28,-84.8 1105.28,-88.8 1084.28,-88.8 1081.28,-84.8 979.72,-84.8 979.72,-48.8 1108.28,-48.8 1108.28,-84.8"/>
<text text-anchor="middle" x="1044" y="-62.6" font-family="Times,serif" font-size="14.00">AppRoutingModule</text>
</g>
<!-- AppRoutingModule&#45;&gt;AppModule -->
<g id="edge8" class="edge">
<title>AppRoutingModule&#45;&gt;AppModule</title>
<path fill="none" stroke="black" d="M1044,-85.09C1044,-107.01 1044,-140.8 1044,-140.8 1044,-140.8 622.06,-140.8 622.06,-140.8"/>
<polygon fill="black" stroke="black" points="622.06,-137.3 612.06,-140.8 622.06,-144.3 622.06,-137.3"/>
</g>
</g>
</svg>
