<?xml version="1.0" encoding="UTF-8" standalone="no"?>
<!DOCTYPE svg PUBLIC "-//W3C//DTD SVG 1.1//EN"
 "http://www.w3.org/Graphics/SVG/1.1/DTD/svg11.dtd">
<!-- Generated by graphviz version 5.0.0 (20220707.1540)
 -->
<!-- Title: dependencies Pages: 1 -->
<svg width="1140pt" height="247pt"
 viewBox="0.00 0.00 1140.00 246.80" xmlns="http://www.w3.org/2000/svg" xmlns:xlink="http://www.w3.org/1999/xlink">
<g id="graph0" class="graph" transform="scale(1 1) rotate(0) translate(4 242.8)">
<title>dependencies</title>
<polygon fill="white" stroke="transparent" points="-4,4 -4,-242.8 1136,-242.8 1136,4 -4,4"/>
<text text-anchor="middle" x="566" y="-8.2" font-family="sans-serif" font-size="14.00">dependencies</text>
<g id="clust1" class="cluster">
<title>cluster_AppModule</title>
<polygon fill="none" stroke="black" stroke-dasharray="1,5" points="8,-32.8 8,-230.8 1124,-230.8 1124,-32.8 8,-32.8"/>
</g>
<g id="clust2" class="cluster">
<title>cluster_AppModule_declarations</title>
<polygon fill="none" stroke="black" points="168,-40.8 168,-92.8 1116,-92.8 1116,-40.8 168,-40.8"/>
</g>
<g id="clust10" class="cluster">
<title>cluster_AppModule_imports</title>
<polygon fill="none" stroke="black" points="16,-40.8 16,-92.8 160,-92.8 160,-40.8 16,-40.8"/>
</g>
<g id="clust12" class="cluster">
<title>cluster_AppModule_bootstrap</title>
<polygon fill="none" stroke="black" points="522,-170.8 522,-222.8 646,-222.8 646,-170.8 522,-170.8"/>
</g>
<!-- AppComponent -->
<g id="node1" class="node">
<title>AppComponent</title>
<polygon fill="#ffffb3" stroke="black" points="1107.94,-84.8 1002.06,-84.8 1002.06,-48.8 1107.94,-48.8 1107.94,-84.8"/>
<text text-anchor="middle" x="1055" y="-62.6" font-family="Times,serif" font-size="14.00">AppComponent</text>
</g>
<!-- AppModule -->
<g id="node8" class="node">
<title>AppModule</title>
<polygon fill="#8dd3c7" stroke="black" points="625.66,-149.8 622.66,-153.8 601.66,-153.8 598.66,-149.8 542.34,-149.8 542.34,-113.8 625.66,-113.8 625.66,-149.8"/>
<text text-anchor="middle" x="584" y="-127.6" font-family="Times,serif" font-size="14.00">AppModule</text>
</g>
<!-- AppComponent&#45;&gt;AppModule -->
<g id="edge1" class="edge">
<title>AppComponent&#45;&gt;AppModule</title>
<path fill="none" stroke="black" d="M1055,-85.09C1055,-107.01 1055,-140.8 1055,-140.8 1055,-140.8 635.8,-140.8 635.8,-140.8"/>
<polygon fill="black" stroke="black" points="635.8,-137.3 625.8,-140.8 635.8,-144.3 635.8,-137.3"/>
</g>
<!-- FooterComponent -->
<g id="node2" class="node">
<title>FooterComponent</title>
<polygon fill="#ffffb3" stroke="black" points="983.88,-84.8 866.12,-84.8 866.12,-48.8 983.88,-48.8 983.88,-84.8"/>
<text text-anchor="middle" x="925" y="-62.6" font-family="Times,serif" font-size="14.00">FooterComponent</text>
</g>
<!-- FooterComponent&#45;&gt;AppModule -->
<g id="edge2" class="edge">
<title>FooterComponent&#45;&gt;AppModule</title>
<path fill="none" stroke="black" d="M925,-84.91C925,-104.14 925,-131.8 925,-131.8 925,-131.8 635.81,-131.8 635.81,-131.8"/>
<polygon fill="black" stroke="black" points="635.81,-128.3 625.81,-131.8 635.81,-135.3 635.81,-128.3"/>
</g>
<!-- LoginComponent -->
<g id="node3" class="node">
<title>LoginComponent</title>
<polygon fill="#ffffb3" stroke="black" points="848.27,-84.8 733.73,-84.8 733.73,-48.8 848.27,-48.8 848.27,-84.8"/>
<text text-anchor="middle" x="791" y="-62.6" font-family="Times,serif" font-size="14.00">LoginComponent</text>
</g>
<!-- LoginComponent&#45;&gt;AppModule -->
<g id="edge3" class="edge">
<title>LoginComponent&#45;&gt;AppModule</title>
<path fill="none" stroke="black" d="M791,-84.83C791,-101.2 791,-122.8 791,-122.8 791,-122.8 635.89,-122.8 635.89,-122.8"/>
<polygon fill="black" stroke="black" points="635.89,-119.3 625.89,-122.8 635.89,-126.3 635.89,-119.3"/>
</g>
<!-- NavBarComponent -->
<g id="node4" class="node">
<title>NavBarComponent</title>
<polygon fill="#ffffb3" stroke="black" points="715.37,-84.8 590.63,-84.8 590.63,-48.8 715.37,-48.8 715.37,-84.8"/>
<text text-anchor="middle" x="653" y="-62.6" font-family="Times,serif" font-size="14.00">NavBarComponent</text>
</g>
<!-- NavBarComponent&#45;&gt;AppModule -->
<g id="edge4" class="edge">
<title>NavBarComponent&#45;&gt;AppModule</title>
<path fill="none" stroke="black" d="M608.2,-84.91C608.2,-84.91 608.2,-103.79 608.2,-103.79"/>
<polygon fill="black" stroke="black" points="604.7,-103.79 608.2,-113.79 611.7,-103.79 604.7,-103.79"/>
</g>
<!-- ToolsComponent -->
<g id="node5" class="node">
<title>ToolsComponent</title>
<polygon fill="#ffffb3" stroke="black" points="572.72,-84.8 459.28,-84.8 459.28,-48.8 572.72,-48.8 572.72,-84.8"/>
<text text-anchor="middle" x="516" y="-62.6" font-family="Times,serif" font-size="14.00">ToolsComponent</text>
</g>
<!-- ToolsComponent&#45;&gt;AppModule -->
<g id="edge5" class="edge">
<title>ToolsComponent&#45;&gt;AppModule</title>
<path fill="none" stroke="black" d="M557.39,-84.91C557.39,-84.91 557.39,-103.79 557.39,-103.79"/>
<polygon fill="black" stroke="black" points="553.89,-103.79 557.39,-113.79 560.89,-103.79 553.89,-103.79"/>
</g>
<!-- UsersComponent -->
<g id="node6" class="node">
<title>UsersComponent</title>
<polygon fill="#ffffb3" stroke="black" points="441.71,-84.8 328.29,-84.8 328.29,-48.8 441.71,-48.8 441.71,-84.8"/>
<text text-anchor="middle" x="385" y="-62.6" font-family="Times,serif" font-size="14.00">UsersComponent</text>
</g>
<!-- UsersComponent&#45;&gt;AppModule -->
<g id="edge6" class="edge">
<title>UsersComponent&#45;&gt;AppModule</title>
<path fill="none" stroke="black" d="M385,-84.83C385,-101.2 385,-122.8 385,-122.8 385,-122.8 532.28,-122.8 532.28,-122.8"/>
<polygon fill="black" stroke="black" points="532.28,-126.3 542.28,-122.8 532.28,-119.3 532.28,-126.3"/>
</g>
<!-- WelcomeComponent -->
<g id="node7" class="node">
<title>WelcomeComponent</title>
<polygon fill="#ffffb3" stroke="black" points="310.47,-84.8 175.53,-84.8 175.53,-48.8 310.47,-48.8 310.47,-84.8"/>
<text text-anchor="middle" x="243" y="-62.6" font-family="Times,serif" font-size="14.00">WelcomeComponent</text>
</g>
<!-- WelcomeComponent&#45;&gt;AppModule -->
<g id="edge7" class="edge">
<title>WelcomeComponent&#45;&gt;AppModule</title>
<path fill="none" stroke="black" d="M243,-84.91C243,-104.14 243,-131.8 243,-131.8 243,-131.8 532.19,-131.8 532.19,-131.8"/>
<polygon fill="black" stroke="black" points="532.19,-135.3 542.19,-131.8 532.19,-128.3 532.19,-135.3"/>
</g>
<!-- AppComponent  -->
<g id="node10" class="node">
<title>AppComponent </title>
<polygon fill="#80b1d3" stroke="black" points="638.44,-214.8 529.56,-214.8 529.56,-178.8 638.44,-178.8 638.44,-214.8"/>
<text text-anchor="middle" x="584" y="-192.6" font-family="Times,serif" font-size="14.00">AppComponent </text>
</g>
<!-- AppModule&#45;&gt;AppComponent  -->
<g id="edge9" class="edge">
<title>AppModule&#45;&gt;AppComponent </title>
<path fill="none" stroke="black" stroke-dasharray="1,5" d="M584,-149.91C584,-149.91 584,-168.79 584,-168.79"/>
<polygon fill="black" stroke="black" points="580.5,-168.79 584,-178.79 587.5,-168.79 580.5,-168.79"/>
</g>
<!-- AppRoutingModule -->
<g id="node9" class="node">
<title>AppRoutingModule</title>
<polygon fill="#8dd3c7" stroke="black" points="152.28,-84.8 149.28,-88.8 128.28,-88.8 125.28,-84.8 23.72,-84.8 23.72,-48.8 152.28,-48.8 152.28,-84.8"/>
<text text-anchor="middle" x="88" y="-62.6" font-family="Times,serif" font-size="14.00">AppRoutingModule</text>
</g>
<!-- AppRoutingModule&#45;&gt;AppModule -->
<g id="edge8" class="edge">
<title>AppRoutingModule&#45;&gt;AppModule</title>
<path fill="none" stroke="black" d="M88,-85.09C88,-107.01 88,-140.8 88,-140.8 88,-140.8 532.14,-140.8 532.14,-140.8"/>
<polygon fill="black" stroke="black" points="532.14,-144.3 542.14,-140.8 532.14,-137.3 532.14,-144.3"/>
</g>
</g>
</svg>
